<mxfile host="app.diagrams.net" modified="2023-09-20T17:58:55.177Z" agent="Mozilla/5.0 (Windows NT 10.0; Win64; x64) AppleWebKit/537.36 (KHTML, like Gecko) Chrome/116.0.0.0 Safari/537.36" etag="KTz062WfTFPvXZARXtDT" version="21.7.5" type="device">
  <diagram id="R2lEEEUBdFMjLlhIrx00" name="Page-1">
    <mxGraphModel dx="1084" dy="1026" grid="1" gridSize="10" guides="1" tooltips="1" connect="1" arrows="1" fold="1" page="1" pageScale="1" pageWidth="850" pageHeight="1100" math="0" shadow="0" extFonts="Permanent Marker^https://fonts.googleapis.com/css?family=Permanent+Marker">
      <root>
        <mxCell id="0" />
        <mxCell id="1" parent="0" />
        <mxCell id="tBCSZ68mOB5i5DJEsTSS-7" style="edgeStyle=orthogonalEdgeStyle;rounded=0;orthogonalLoop=1;jettySize=auto;html=1;entryX=0;entryY=0.5;entryDx=0;entryDy=0;" parent="1" source="tBCSZ68mOB5i5DJEsTSS-1" target="tBCSZ68mOB5i5DJEsTSS-4" edge="1">
          <mxGeometry relative="1" as="geometry" />
        </mxCell>
        <mxCell id="tBCSZ68mOB5i5DJEsTSS-8" style="edgeStyle=orthogonalEdgeStyle;rounded=0;orthogonalLoop=1;jettySize=auto;html=1;entryX=0;entryY=0.5;entryDx=0;entryDy=0;" parent="1" source="tBCSZ68mOB5i5DJEsTSS-1" target="tBCSZ68mOB5i5DJEsTSS-3" edge="1">
          <mxGeometry relative="1" as="geometry" />
        </mxCell>
        <mxCell id="tBCSZ68mOB5i5DJEsTSS-10" style="edgeStyle=orthogonalEdgeStyle;rounded=0;orthogonalLoop=1;jettySize=auto;html=1;entryX=0;entryY=0.5;entryDx=0;entryDy=0;" parent="1" source="tBCSZ68mOB5i5DJEsTSS-1" target="tBCSZ68mOB5i5DJEsTSS-5" edge="1">
          <mxGeometry relative="1" as="geometry" />
        </mxCell>
        <mxCell id="tBCSZ68mOB5i5DJEsTSS-11" style="edgeStyle=orthogonalEdgeStyle;rounded=0;orthogonalLoop=1;jettySize=auto;html=1;entryX=0;entryY=0.5;entryDx=0;entryDy=0;" parent="1" source="tBCSZ68mOB5i5DJEsTSS-1" target="tBCSZ68mOB5i5DJEsTSS-6" edge="1">
          <mxGeometry relative="1" as="geometry" />
        </mxCell>
        <mxCell id="tBCSZ68mOB5i5DJEsTSS-14" style="edgeStyle=orthogonalEdgeStyle;rounded=0;orthogonalLoop=1;jettySize=auto;html=1;entryX=0;entryY=0.5;entryDx=0;entryDy=0;" parent="1" source="tBCSZ68mOB5i5DJEsTSS-1" target="tBCSZ68mOB5i5DJEsTSS-13" edge="1">
          <mxGeometry relative="1" as="geometry" />
        </mxCell>
        <mxCell id="tBCSZ68mOB5i5DJEsTSS-1" value="Personaje" style="whiteSpace=wrap;html=1;align=center;fillColor=#d5e8d4;strokeColor=#82b366;" parent="1" vertex="1">
          <mxGeometry x="160" y="261.25" width="130" height="75" as="geometry" />
        </mxCell>
        <mxCell id="tBCSZ68mOB5i5DJEsTSS-3" value="name" style="ellipse;whiteSpace=wrap;html=1;align=center;fillColor=#dae8fc;strokeColor=#6c8ebf;" parent="1" vertex="1">
          <mxGeometry x="360" y="160" width="100" height="40" as="geometry" />
        </mxCell>
        <mxCell id="tBCSZ68mOB5i5DJEsTSS-4" value="gender" style="ellipse;whiteSpace=wrap;html=1;align=center;fillColor=#dae8fc;strokeColor=#6c8ebf;" parent="1" vertex="1">
          <mxGeometry x="360" y="220" width="100" height="40" as="geometry" />
        </mxCell>
        <mxCell id="tBCSZ68mOB5i5DJEsTSS-5" value="status" style="ellipse;whiteSpace=wrap;html=1;align=center;fillColor=#dae8fc;strokeColor=#6c8ebf;" parent="1" vertex="1">
          <mxGeometry x="360" y="280" width="100" height="40" as="geometry" />
        </mxCell>
        <mxCell id="tBCSZ68mOB5i5DJEsTSS-6" value="image" style="ellipse;whiteSpace=wrap;html=1;align=center;fillColor=#dae8fc;strokeColor=#6c8ebf;" parent="1" vertex="1">
          <mxGeometry x="360" y="340" width="100" height="40" as="geometry" />
        </mxCell>
        <mxCell id="tBCSZ68mOB5i5DJEsTSS-12" value="id" style="ellipse;whiteSpace=wrap;html=1;align=center;fontStyle=4;fillColor=#f8cecc;strokeColor=#b85450;" parent="1" vertex="1">
          <mxGeometry x="220" y="246.25" width="100" height="40" as="geometry" />
        </mxCell>
        <mxCell id="tBCSZ68mOB5i5DJEsTSS-13" value="Species" style="ellipse;whiteSpace=wrap;html=1;align=center;fillColor=#dae8fc;strokeColor=#6c8ebf;" parent="1" vertex="1">
          <mxGeometry x="360" y="397.5" width="100" height="40" as="geometry" />
        </mxCell>
        <mxCell id="dFeaMfNz4Kwbp3IMG9I--6" style="edgeStyle=orthogonalEdgeStyle;rounded=0;orthogonalLoop=1;jettySize=auto;html=1;entryX=0.5;entryY=1;entryDx=0;entryDy=0;" edge="1" parent="1" source="dFeaMfNz4Kwbp3IMG9I--1" target="dFeaMfNz4Kwbp3IMG9I--4">
          <mxGeometry relative="1" as="geometry" />
        </mxCell>
        <mxCell id="dFeaMfNz4Kwbp3IMG9I--7" style="edgeStyle=orthogonalEdgeStyle;rounded=0;orthogonalLoop=1;jettySize=auto;html=1;" edge="1" parent="1" source="dFeaMfNz4Kwbp3IMG9I--1" target="dFeaMfNz4Kwbp3IMG9I--2">
          <mxGeometry relative="1" as="geometry" />
        </mxCell>
        <mxCell id="dFeaMfNz4Kwbp3IMG9I--8" style="edgeStyle=orthogonalEdgeStyle;rounded=0;orthogonalLoop=1;jettySize=auto;html=1;entryX=0.5;entryY=1;entryDx=0;entryDy=0;" edge="1" parent="1" source="dFeaMfNz4Kwbp3IMG9I--1" target="dFeaMfNz4Kwbp3IMG9I--3">
          <mxGeometry relative="1" as="geometry" />
        </mxCell>
        <mxCell id="dFeaMfNz4Kwbp3IMG9I--1" value="Users" style="whiteSpace=wrap;html=1;align=center;fillColor=#d5e8d4;strokeColor=#82b366;" vertex="1" parent="1">
          <mxGeometry x="615" y="500" width="100" height="40" as="geometry" />
        </mxCell>
        <mxCell id="dFeaMfNz4Kwbp3IMG9I--2" value="id" style="ellipse;whiteSpace=wrap;html=1;align=center;fontStyle=4;fillColor=#f8cecc;strokeColor=#b85450;" vertex="1" parent="1">
          <mxGeometry x="615" y="420" width="100" height="40" as="geometry" />
        </mxCell>
        <mxCell id="dFeaMfNz4Kwbp3IMG9I--3" value="name" style="ellipse;whiteSpace=wrap;html=1;align=center;fillColor=#dae8fc;strokeColor=#6c8ebf;" vertex="1" parent="1">
          <mxGeometry x="720" y="420" width="100" height="40" as="geometry" />
        </mxCell>
        <mxCell id="dFeaMfNz4Kwbp3IMG9I--4" value="Mail" style="ellipse;whiteSpace=wrap;html=1;align=center;fillColor=#dae8fc;strokeColor=#6c8ebf;" vertex="1" parent="1">
          <mxGeometry x="510" y="420" width="100" height="40" as="geometry" />
        </mxCell>
        <mxCell id="dFeaMfNz4Kwbp3IMG9I--18" style="edgeStyle=orthogonalEdgeStyle;rounded=0;orthogonalLoop=1;jettySize=auto;html=1;" edge="1" parent="1" source="dFeaMfNz4Kwbp3IMG9I--9" target="dFeaMfNz4Kwbp3IMG9I--17">
          <mxGeometry relative="1" as="geometry" />
        </mxCell>
        <mxCell id="dFeaMfNz4Kwbp3IMG9I--19" style="edgeStyle=orthogonalEdgeStyle;rounded=0;orthogonalLoop=1;jettySize=auto;html=1;" edge="1" parent="1" source="dFeaMfNz4Kwbp3IMG9I--9" target="dFeaMfNz4Kwbp3IMG9I--16">
          <mxGeometry relative="1" as="geometry" />
        </mxCell>
        <mxCell id="dFeaMfNz4Kwbp3IMG9I--9" value="Favorites" style="whiteSpace=wrap;html=1;align=center;fillColor=#d5e8d4;strokeColor=#82b366;" vertex="1" parent="1">
          <mxGeometry x="300" y="500" width="100" height="40" as="geometry" />
        </mxCell>
        <mxCell id="dFeaMfNz4Kwbp3IMG9I--10" value="" style="edgeStyle=entityRelationEdgeStyle;fontSize=12;html=1;endArrow=ERoneToMany;rounded=0;exitX=0;exitY=0.5;exitDx=0;exitDy=0;entryX=1;entryY=0.5;entryDx=0;entryDy=0;" edge="1" parent="1" source="dFeaMfNz4Kwbp3IMG9I--1" target="dFeaMfNz4Kwbp3IMG9I--9">
          <mxGeometry width="100" height="100" relative="1" as="geometry">
            <mxPoint x="300" y="610" as="sourcePoint" />
            <mxPoint x="400" y="510" as="targetPoint" />
            <Array as="points">
              <mxPoint x="430" y="580" />
            </Array>
          </mxGeometry>
        </mxCell>
        <mxCell id="dFeaMfNz4Kwbp3IMG9I--13" value="" style="edgeStyle=entityRelationEdgeStyle;fontSize=12;html=1;endArrow=ERmany;startArrow=ERmany;rounded=0;exitX=0.5;exitY=0;exitDx=0;exitDy=0;entryX=0.5;entryY=1;entryDx=0;entryDy=0;" edge="1" parent="1" source="dFeaMfNz4Kwbp3IMG9I--9" target="tBCSZ68mOB5i5DJEsTSS-1">
          <mxGeometry width="100" height="100" relative="1" as="geometry">
            <mxPoint x="230" y="530" as="sourcePoint" />
            <mxPoint x="330" y="430" as="targetPoint" />
            <Array as="points">
              <mxPoint x="280" y="450" />
            </Array>
          </mxGeometry>
        </mxCell>
        <mxCell id="dFeaMfNz4Kwbp3IMG9I--14" value="User" style="swimlane;childLayout=stackLayout;horizontal=1;startSize=50;horizontalStack=0;rounded=1;fontSize=14;fontStyle=0;strokeWidth=2;resizeParent=0;resizeLast=1;shadow=0;dashed=0;align=center;arcSize=4;whiteSpace=wrap;html=1;fillColor=#e1d5e7;strokeColor=#9673a6;" vertex="1" parent="1">
          <mxGeometry x="105" y="710" width="160" height="120" as="geometry" />
        </mxCell>
        <mxCell id="dFeaMfNz4Kwbp3IMG9I--15" value="+ID&lt;br&gt;+Mail&lt;br&gt;+Name" style="align=left;strokeColor=none;fillColor=none;spacingLeft=4;fontSize=12;verticalAlign=top;resizable=0;rotatable=0;part=1;html=1;" vertex="1" parent="dFeaMfNz4Kwbp3IMG9I--14">
          <mxGeometry y="50" width="160" height="70" as="geometry" />
        </mxCell>
        <mxCell id="dFeaMfNz4Kwbp3IMG9I--16" value="id" style="ellipse;whiteSpace=wrap;html=1;align=center;fillColor=#f8cecc;strokeColor=#b85450;" vertex="1" parent="1">
          <mxGeometry x="160" y="520" width="100" height="40" as="geometry" />
        </mxCell>
        <mxCell id="dFeaMfNz4Kwbp3IMG9I--17" value="userid" style="ellipse;whiteSpace=wrap;html=1;align=center;fillColor=#dae8fc;strokeColor=#6c8ebf;" vertex="1" parent="1">
          <mxGeometry x="260" y="580" width="100" height="40" as="geometry" />
        </mxCell>
        <mxCell id="dFeaMfNz4Kwbp3IMG9I--20" value="Favorites" style="swimlane;childLayout=stackLayout;horizontal=1;startSize=50;horizontalStack=0;rounded=1;fontSize=14;fontStyle=0;strokeWidth=2;resizeParent=0;resizeLast=1;shadow=0;dashed=0;align=center;arcSize=4;whiteSpace=wrap;html=1;fillColor=#e1d5e7;strokeColor=#9673a6;" vertex="1" parent="1">
          <mxGeometry x="345" y="750" width="160" height="120" as="geometry" />
        </mxCell>
        <mxCell id="dFeaMfNz4Kwbp3IMG9I--21" value="+ID&lt;br&gt;+UserID" style="align=left;strokeColor=none;fillColor=none;spacingLeft=4;fontSize=12;verticalAlign=top;resizable=0;rotatable=0;part=1;html=1;" vertex="1" parent="dFeaMfNz4Kwbp3IMG9I--20">
          <mxGeometry y="50" width="160" height="70" as="geometry" />
        </mxCell>
        <mxCell id="dFeaMfNz4Kwbp3IMG9I--22" value="Personaje" style="swimlane;childLayout=stackLayout;horizontal=1;startSize=50;horizontalStack=0;rounded=1;fontSize=14;fontStyle=0;strokeWidth=2;resizeParent=0;resizeLast=1;shadow=0;dashed=0;align=center;arcSize=4;whiteSpace=wrap;html=1;fillColor=#e1d5e7;strokeColor=#9673a6;" vertex="1" parent="1">
          <mxGeometry x="585" y="800" width="160" height="150" as="geometry" />
        </mxCell>
        <mxCell id="dFeaMfNz4Kwbp3IMG9I--23" value="+ID&lt;br&gt;+Name&lt;br&gt;+Gender&lt;br&gt;+Status&lt;br&gt;+image&lt;br&gt;+Species" style="align=left;strokeColor=none;fillColor=none;spacingLeft=4;fontSize=12;verticalAlign=top;resizable=0;rotatable=0;part=1;html=1;" vertex="1" parent="dFeaMfNz4Kwbp3IMG9I--22">
          <mxGeometry y="50" width="160" height="100" as="geometry" />
        </mxCell>
        <mxCell id="dFeaMfNz4Kwbp3IMG9I--27" value="" style="edgeStyle=entityRelationEdgeStyle;fontSize=12;html=1;endArrow=ERoneToMany;rounded=0;exitX=1;exitY=0;exitDx=0;exitDy=0;entryX=0;entryY=0.25;entryDx=0;entryDy=0;" edge="1" parent="1" source="dFeaMfNz4Kwbp3IMG9I--15" target="dFeaMfNz4Kwbp3IMG9I--21">
          <mxGeometry width="100" height="100" relative="1" as="geometry">
            <mxPoint x="345" y="700" as="sourcePoint" />
            <mxPoint x="445" y="600" as="targetPoint" />
          </mxGeometry>
        </mxCell>
        <mxCell id="dFeaMfNz4Kwbp3IMG9I--28" value="" style="edgeStyle=entityRelationEdgeStyle;fontSize=12;html=1;endArrow=ERoneToMany;rounded=0;exitX=1;exitY=0.147;exitDx=0;exitDy=0;exitPerimeter=0;entryX=-0.022;entryY=0.379;entryDx=0;entryDy=0;entryPerimeter=0;" edge="1" parent="1" source="dFeaMfNz4Kwbp3IMG9I--21" target="dFeaMfNz4Kwbp3IMG9I--23">
          <mxGeometry width="100" height="100" relative="1" as="geometry">
            <mxPoint x="345" y="700" as="sourcePoint" />
            <mxPoint x="445" y="600" as="targetPoint" />
          </mxGeometry>
        </mxCell>
      </root>
    </mxGraphModel>
  </diagram>
</mxfile>
